<svg id="approved" xmlns="http://www.w3.org/2000/svg" width="33.65" height="33.65" viewBox="0 0 33.65 33.65">
  <path id="Path_175" data-name="Path 175" d="M16.825,33.65A16.825,16.825,0,1,1,33.65,16.825,16.825,16.825,0,0,1,16.825,33.65Zm0-31.407A14.582,14.582,0,1,0,31.407,16.825,14.582,14.582,0,0,0,16.825,2.243Z" fill="#2bc083"/>
  <path id="Path_176" data-name="Path 176" d="M13.923,23.464a1.122,1.122,0,0,1-.778-.315l-5.8-5.608a1.124,1.124,0,1,1,1.565-1.613l5,4.836L24.147,10.34a1.122,1.122,0,1,1,1.6,1.57L14.724,23.127A1.122,1.122,0,0,1,13.923,23.464Z" transform="translate(0.852 1.213)" fill="#2bc083"/>
</svg>
