<svg xmlns="http://www.w3.org/2000/svg" width="38.785" height="38.785" viewBox="0 0 38.785 38.785">
  <path id="calendar-delete" d="M6.967,1V3.983H5.475A4.511,4.511,0,0,0,1,8.482V35.275a4.514,4.514,0,0,0,4.475,4.51H35.31a4.514,4.514,0,0,0,4.475-4.51V8.482a4.511,4.511,0,0,0-4.475-4.5H33.818V1H30.835V3.983H9.95V1ZM5.475,6.967H6.967V9.95H9.95V6.967H30.835V9.95h2.983V6.967H35.31A1.478,1.478,0,0,1,36.8,8.482v4.452H3.983V8.482A1.478,1.478,0,0,1,5.475,6.967Zm-1.492,8.95H36.8V35.275A1.488,1.488,0,0,1,35.31,36.8H5.475a1.488,1.488,0,0,1-1.492-1.527Z" transform="translate(-1 -1)" fill="#2b2d41"/>
</svg>
