<svg xmlns="http://www.w3.org/2000/svg" width="30.041" height="28.928" viewBox="0 0 30.041 28.928">
  <path id="date-from" d="M5.45,1V3.225H4.338A3.35,3.35,0,0,0,1,6.563V26.59a3.35,3.35,0,0,0,3.338,3.338H26.59A3.312,3.312,0,0,0,29.72,27.7H4.338A1.1,1.1,0,0,1,3.225,26.59V12.126h26.7V6.563A3.35,3.35,0,0,0,26.59,3.225H25.478V1H23.252V3.225H7.676V1ZM4.338,5.45H5.45V7.676H7.676V5.45H23.252V7.676h2.225V5.45H26.59A1.1,1.1,0,0,1,27.7,6.563V9.9H3.225V6.563A1.1,1.1,0,0,1,4.338,5.45Zm21.14,8.9V18.8H18.8v2.225h6.676v4.45l5.563-5.563Z" transform="translate(-1 -1)" fill="#2b2d41"/>
</svg>
