<svg id="edit" xmlns="http://www.w3.org/2000/svg" width="33.65" height="33.633" viewBox="0 0 33.65 33.633">
  <path id="Path_177" data-name="Path 177" d="M35.021,5.572,32.589,3.14a3.04,3.04,0,0,0-4.277,0L22.292,9.159H12.167A9.93,9.93,0,0,0,2.25,19.077v6.9a9.93,9.93,0,0,0,9.917,9.917h6.9a9.93,9.93,0,0,0,9.917-9.917V15.886l6.037-6.037a3.04,3.04,0,0,0,0-4.277ZM26.776,14.42h0L16.617,24.579a.8.8,0,0,1-.31.121H13.875a.427.427,0,0,1-.431-.431V21.836a.5.5,0,0,1,.121-.31L26.776,8.314l3.053,3.053L26.776,14.42ZM26.4,25.958a7.346,7.346,0,0,1-7.33,7.33h-6.9a7.346,7.346,0,0,1-7.33-7.33v-6.9a7.346,7.346,0,0,1,7.33-7.33H19.7L11.736,19.7a3,3,0,0,0-.88,2.139v2.432a3.033,3.033,0,0,0,3.018,3.018h2.432a3.1,3.1,0,0,0,2.139-.88L26.4,18.456ZM33.192,8,31.675,9.521,28.622,6.468,30.14,4.951a.8.8,0,0,1,.31-.121.416.416,0,0,1,.31.121l2.432,2.432a.446.446,0,0,1,.121.31A.4.4,0,0,1,33.192,8Z" transform="translate(-2.25 -2.26)" fill="#2b2d41"/>
</svg>
