<svg id="hourglass" xmlns="http://www.w3.org/2000/svg" width="31.255" height="41.673" viewBox="0 0 31.255 41.673">
  <path id="Path_65" data-name="Path 65" d="M35.766,40.7h-1.8A19.184,19.184,0,0,0,31.629,27.3a17.86,17.86,0,0,0-3.959-4.465,17.86,17.86,0,0,0,3.959-4.465A19.184,19.184,0,0,0,33.965,4.977h1.8a1.488,1.488,0,0,0,0-2.977H7.488a1.488,1.488,0,0,0,0,2.977h1.8a19.184,19.184,0,0,0,2.337,13.395,17.86,17.86,0,0,0,3.959,4.465A17.86,17.86,0,0,0,11.626,27.3,19.184,19.184,0,0,0,9.289,40.7h-1.8a1.488,1.488,0,1,0,0,2.977H35.766a1.488,1.488,0,0,0,0-2.977Zm-23.441,0a16.372,16.372,0,0,1,1.831-11.8,15.181,15.181,0,0,1,4.777-4.807h0a1.667,1.667,0,0,0,.461-.357v-.074h0a.231.231,0,0,1,.074-.208,2.679,2.679,0,0,0,.119-.313,1.8,1.8,0,0,0,0-.283,1.8,1.8,0,0,0,0-.283,2.679,2.679,0,0,0-.119-.313.335.335,0,0,0-.074-.208h0a2.471,2.471,0,0,0-.193-.208,1.489,1.489,0,0,0-.223-.208h0A15.181,15.181,0,0,1,14.2,16.824,16.371,16.371,0,0,1,12.325,4.977h18.6a16.371,16.371,0,0,1-1.831,11.8,15.181,15.181,0,0,1-4.777,4.807h0a1.488,1.488,0,0,0-.223.208A1.235,1.235,0,0,0,23.9,22h0l-.045.238a1.949,1.949,0,0,0-.119.313,1.8,1.8,0,0,0,0,.283,1.8,1.8,0,0,0,0,.283,1.95,1.95,0,0,0,.119.313l.074.208h0a1.28,1.28,0,0,0,.193.208,1.488,1.488,0,0,0,.223.208h0a15.181,15.181,0,0,1,4.778,4.807,16.372,16.372,0,0,1,1.8,11.832Z" transform="translate(-6 -2)" fill="#01a0d2"/>
  <path id="Path_66" data-name="Path 66" d="M18.725,17.26h.253a9.257,9.257,0,0,0,4.614-2.128,5.194,5.194,0,0,0,1.726-4.911A1.488,1.488,0,0,0,23.934,9H13.516a1.488,1.488,0,0,0-1.488,1.191A5.254,5.254,0,0,0,13.769,15.1a9.257,9.257,0,0,0,4.614,2.128Zm-3.542-5.284h7.084a2.977,2.977,0,0,1-.685.938,6.43,6.43,0,0,1-2.858,1.339,6.31,6.31,0,0,1-2.843-1.339,2.828,2.828,0,0,1-.7-.938Z" transform="translate(-3.097 1.418)" fill="#01a0d2"/>
  <path id="Path_67" data-name="Path 67" d="M19.515,19.015a1.22,1.22,0,0,0-.655,0,10.552,10.552,0,0,0-5.775,3.468,8.93,8.93,0,0,0-1.979,7.144,1.488,1.488,0,0,0,1.488,1.25H25.811a1.488,1.488,0,0,0,1.488-1.25,8.93,8.93,0,0,0-1.979-7.144A10.552,10.552,0,0,0,19.515,19.015Zm-5.537,8.93a5.953,5.953,0,0,1,1.384-3.512,7.605,7.605,0,0,1,3.825-2.441,7.665,7.665,0,0,1,3.81,2.4,5.953,5.953,0,0,1,1.4,3.557Z" transform="translate(-3.561 6.287)" fill="#01a0d2"/>
</svg>
