<svg id="user" xmlns="http://www.w3.org/2000/svg" width="40.586" height="40.586" viewBox="0 0 40.586 40.586">
  <path id="Path_170" data-name="Path 170" d="M22.293,2A20.293,20.293,0,1,0,42.586,22.293,20.293,20.293,0,0,0,22.293,2Zm0,2.9A17.394,17.394,0,0,1,35.715,33.338a16.249,16.249,0,0,0-13.422-6.7A16.263,16.263,0,0,0,8.871,33.353,17.394,17.394,0,0,1,22.293,4.9ZM10.958,35.455a13.292,13.292,0,0,1,11.335-5.914,13.451,13.451,0,0,1,11.335,5.914,17.293,17.293,0,0,1-22.67,0Z" transform="translate(-2 -2)" fill="#2b2d41"/>
  <path id="Path_171" data-name="Path 171" d="M18.248,22.5A7.248,7.248,0,1,0,11,15.248,7.248,7.248,0,0,0,18.248,22.5Zm0-11.6A4.349,4.349,0,1,1,13.9,15.248,4.349,4.349,0,0,1,18.248,10.9Z" transform="translate(2.046 0.697)" fill="#2b2d41"/>
</svg>
