<svg xmlns="http://www.w3.org/2000/svg" width="37.858" height="37.858" viewBox="0 0 37.858 37.858">
  <path id="vacation" d="M38.71,26.887a3.729,3.729,0,0,0-4.659-5.824l-3.883,3.106a6.323,6.323,0,0,1-3.941,1.378H22.635V16.811h10.29a3.3,3.3,0,0,0,3.3-3.3A11.268,11.268,0,0,0,24.965,2.25H17.413A11.268,11.268,0,0,0,6.152,13.51a3.3,3.3,0,0,0,3.3,3.3h10.29v8.736H5.978A3.728,3.728,0,0,0,2.25,29.275v1.281a3.728,3.728,0,0,0,3.728,3.728H8.754L6.385,37.836a1.449,1.449,0,0,0,.408,2.019,1.549,1.549,0,0,0,.815.252,1.458,1.458,0,0,0,1.2-.641l3.456-5.184H26.246L29.7,39.467a1.411,1.411,0,0,0,1.2.641,1.438,1.438,0,0,0,.815-.252,1.466,1.466,0,0,0,.408-2.019l-2.737-4.116a9.353,9.353,0,0,0,2.621-1.456l6.717-5.378ZM18.519,8.365a11.414,11.414,0,0,1,2.66-2.893,11.1,11.1,0,0,1,2.66,2.893A11.484,11.484,0,0,1,25.567,13.9H16.811a11.484,11.484,0,0,1,1.728-5.533ZM33.313,13.51a.389.389,0,0,1-.388.388H28.459a14.371,14.371,0,0,0-2.174-7.086,14.452,14.452,0,0,0-1.243-1.631,8.369,8.369,0,0,1,8.27,8.348Zm-24.268,0a8.369,8.369,0,0,1,8.27-8.348,16.441,16.441,0,0,0-1.243,1.631A14.371,14.371,0,0,0,13.9,13.879H9.433a.389.389,0,0,1-.388-.388ZM26.227,31.371H5.978a.82.82,0,0,1-.815-.815V29.275a.82.82,0,0,1,.815-.815H26.227a9.3,9.3,0,0,0,5.766-2.019l3.883-3.106a.825.825,0,0,1,.874-.1.79.79,0,0,1,.466.738.819.819,0,0,1-.311.641h0l-6.717,5.378a6.323,6.323,0,0,1-3.941,1.378Z" transform="translate(-2.25 -2.25)" fill="#2b2d41"/>
</svg>
