<svg xmlns="http://www.w3.org/2000/svg" width="24.181" height="24.181" viewBox="0 0 24.181 24.181">
  <path id="calendar-delete" d="M4.72,1V2.86H3.79A2.813,2.813,0,0,0,1,5.665v16.7a2.814,2.814,0,0,0,2.79,2.812h18.6a2.814,2.814,0,0,0,2.79-2.812V5.665a2.813,2.813,0,0,0-2.79-2.8h-.93V1H19.6V2.86H6.58V1ZM3.79,4.72h.93V6.58H6.58V4.72H19.6V6.58h1.86V4.72h.93a.922.922,0,0,1,.93.945V8.44H2.86V5.665A.922.922,0,0,1,3.79,4.72ZM2.86,10.3H23.321V22.369a.928.928,0,0,1-.93.952H3.79a.928.928,0,0,1-.93-.952Z" transform="translate(-1 -1)" fill="#4e4e4e"/>
</svg>
